<?xml version="1.0" standalone="no"?>
<!DOCTYPE svg PUBLIC "-//W3C//DTD SVG 20010904//EN"
 "http://www.w3.org/TR/2001/REC-SVG-20010904/DTD/svg10.dtd">
<svg version="1.0" xmlns="http://www.w3.org/2000/svg"
 width="512.000000pt" height="512.000000pt" viewBox="0 0 512.000000 512.000000"
 preserveAspectRatio="xMidYMid meet">
<metadata>
Created by potrace 1.11, written by Peter Selinger 2001-2013
</metadata>
<g transform="translate(0.000000,512.000000) scale(0.100000,-0.100000)"
fill="#000000" stroke="none">
<path d="M240 5096 c-114 -32 -204 -128 -229 -246 -9 -41 -11 -519 -9 -1915
l3 -1860 26 -55 c14 -30 44 -73 66 -95 85 -85 183 -109 410 -103 117 3 135 5
152 23 31 31 36 76 13 105 -20 25 -23 25 -209 30 -215 6 -238 13 -283 92 -23
40 -25 55 -28 201 l-4 157 1366 0 1366 0 0 -60 0 -60 -52 0 c-63 0 -109 -24
-138 -72 -17 -28 -20 -51 -20 -145 l0 -113 -815 0 -816 0 -26 -26 c-20 -20
-24 -31 -19 -57 4 -18 15 -41 27 -52 19 -19 35 -20 394 -23 l375 -3 0 -128 0
-128 -142 -5 c-163 -5 -214 -21 -281 -86 -59 -57 -77 -120 -77 -265 0 -132 11
-165 62 -193 18 -11 264 -13 1210 -14 l1187 0 34 33 c43 40 52 88 44 223 -8
134 -40 197 -133 257 -50 33 -130 47 -261 47 l-103 0 0 45 0 45 706 0 706 0
39 22 c43 24 79 85 79 134 0 26 5 31 48 47 64 22 130 81 167 148 l30 54 6 290
c4 160 7 1006 8 1880 1 1685 2 1646 -44 1721 -48 76 -117 128 -200 150 -71 19
-4566 19 -4635 0z m4584 -146 c51 -11 86 -38 113 -86 22 -38 23 -47 23 -331
l0 -293 -2400 0 -2400 0 0 291 c0 313 2 330 55 379 55 52 -66 49 2335 49 1308
0 2251 -3 2274 -9z m136 -2110 l0 -1250 -50 0 -50 0 0 211 c0 199 -1 214 -22
250 -26 47 -86 79 -146 79 l-42 0 0 75 0 75 42 0 c60 0 120 32 146 79 21 37
22 51 22 257 0 244 -4 263 -72 304 -31 18 -51 20 -278 20 -266 0 -281 -3 -294
-55 l-6 -25 -155 0 c-151 0 -154 0 -161 23 -3 12 -13 30 -22 40 -14 16 -53 17
-556 17 -525 0 -542 -1 -574 -20 -20 -13 -41 -38 -53 -65 -18 -42 -20 -64 -17
-259 3 -198 5 -217 24 -242 34 -46 67 -65 127 -71 l57 -6 0 -72 0 -72 -57 -6
c-60 -6 -93 -25 -127 -71 -19 -25 -21 -43 -24 -247 l-3 -219 -1260 0 -1259 0
0 1250 0 1250 2405 0 2405 0 0 -1250z m-460 -635 l0 -75 -735 0 -735 0 0 75 0
75 735 0 735 0 0 -75z m-82 -742 l82 -6 0 -73 0 -74 -735 0 -735 0 0 80 0 80
653 0 c358 0 689 -3 735 -7z m302 -93 l0 -60 -30 0 -30 0 0 60 0 60 30 0 30 0
0 -60z m-1223 -997 c13 -20 19 -52 21 -125 l4 -98 -1041 0 -1041 0 0 75 c0 88
16 127 63 155 31 19 58 20 1004 20 l973 0 17 -27z"/>
<path d="M452 4799 c-67 -34 -122 -120 -122 -192 0 -95 73 -191 165 -217 131
-37 263 55 273 190 5 71 -10 120 -51 167 -64 72 -178 95 -265 52z m122 -135
c21 -8 20 -47 0 -90 -18 -37 -38 -43 -66 -17 -49 44 5 131 66 107z"/>
<path d="M1012 4799 c-67 -34 -122 -120 -122 -192 0 -54 27 -119 67 -159 129
-133 358 -51 371 132 5 71 -10 120 -51 167 -64 72 -178 95 -265 52z m145 -151
c43 -40 18 -108 -40 -108 -18 0 -37 4 -43 8 -19 13 -34 50 -27 69 19 55 70 69
110 31z"/>
<path d="M1572 4799 c-131 -65 -161 -236 -60 -344 129 -141 362 -63 376 125 5
71 -10 120 -51 167 -64 72 -178 95 -265 52z m151 -161 c18 -24 18 -30 7 -57
-21 -51 -96 -55 -118 -6 -34 73 62 128 111 63z"/>
<path d="M484 3718 c-133 -130 -159 -165 -149 -201 9 -28 252 -276 284 -288
46 -18 101 24 101 78 0 9 -46 62 -102 119 l-102 104 96 98 c55 56 100 110 104
126 10 41 -22 80 -70 84 -35 3 -43 -3 -162 -120z"/>
<path d="M973 3818 c-11 -13 -64 -134 -117 -270 -103 -265 -105 -276 -54 -312
66 -47 90 -14 202 274 53 135 96 252 96 261 0 9 -9 28 -21 43 -27 34 -77 36
-106 4z"/>
<path d="M1152 3817 c-42 -45 -31 -71 77 -181 l100 -101 -100 -102 c-78 -80
-99 -108 -99 -130 0 -61 55 -96 108 -69 15 8 82 70 150 139 164 166 165 150
-16 330 -116 116 -142 137 -168 137 -19 0 -39 -9 -52 -23z"/>
<path d="M1679 3602 c-33 -27 -30 -78 5 -109 26 -22 34 -23 175 -23 135 0 151
2 175 21 34 27 36 79 4 109 -20 18 -35 20 -179 20 -137 0 -160 -2 -180 -18z"/>
<path d="M2237 3609 c-47 -28 -40 -107 11 -128 19 -8 263 -11 835 -9 l809 3
19 24 c26 32 24 73 -4 99 l-23 22 -815 0 c-550 -1 -820 -4 -832 -11z"/>
<path d="M1679 3272 c-33 -27 -30 -78 5 -109 l28 -24 293 3 c272 3 294 4 314
22 27 25 28 79 1 106 -19 19 -33 20 -319 20 -275 0 -301 -1 -322 -18z"/>
<path d="M2461 3264 c-24 -30 -26 -43 -10 -78 18 -40 55 -48 194 -44 119 3
128 4 146 27 26 32 24 73 -4 99 -22 20 -33 22 -164 22 -141 0 -142 0 -162 -26z"/>
<path d="M2921 3264 c-24 -30 -26 -43 -10 -78 21 -45 43 -47 403 -44 l338 3
19 24 c26 32 24 73 -4 99 -23 22 -28 22 -374 22 l-352 0 -20 -26z"/>
<path d="M400 2910 c-27 -27 -26 -81 1 -106 19 -17 42 -19 282 -22 144 -2 272
0 285 3 60 15 81 83 39 123 -23 22 -30 22 -305 22 -269 0 -283 -1 -302 -20z"/>
<path d="M1187 2918 c-26 -21 -37 -61 -23 -89 24 -49 29 -49 524 -47 l464 3
19 24 c25 30 24 76 -1 101 -19 19 -33 20 -493 20 -363 0 -477 -3 -490 -12z"/>
<path d="M430 2613 c-51 -19 -68 -85 -30 -123 18 -18 33 -20 158 -20 132 0
140 1 160 23 12 13 22 33 22 44 0 67 -37 83 -182 82 -62 0 -120 -3 -128 -6z"/>
<path d="M894 2609 c-44 -22 -52 -81 -16 -121 14 -17 44 -18 367 -18 328 0
354 1 376 18 30 25 30 75 0 105 -21 22 -26 22 -364 24 -224 1 -349 -2 -363 -8z"/>
<path d="M1813 2610 c-45 -18 -57 -81 -23 -118 19 -20 31 -22 120 -22 95 0 99
1 119 26 34 43 26 86 -20 109 -31 17 -160 20 -196 5z"/>
<path d="M2190 2613 c-52 -20 -68 -85 -30 -123 18 -18 33 -20 175 -20 142 0
157 2 175 20 25 25 26 71 1 101 -18 23 -25 24 -163 26 -78 1 -150 0 -158 -4z"/>
<path d="M400 2280 c-27 -27 -26 -81 1 -106 19 -17 39 -19 246 -19 224 0 225
0 244 24 25 30 24 76 -1 101 -19 19 -33 20 -245 20 -212 0 -226 -1 -245 -20z"/>
<path d="M1011 2274 c-24 -31 -26 -43 -9 -79 19 -41 60 -47 341 -43 l259 3 25
29 c27 31 25 66 -4 99 -15 15 -42 17 -304 17 l-288 0 -20 -26z"/>
<path d="M1777 2283 c-29 -33 -31 -68 -4 -99 l25 -29 362 0 362 0 19 24 c25
30 24 76 -1 101 -19 19 -33 20 -383 20 -334 0 -365 -1 -380 -17z"/>
</g>
</svg>
